<mxfile host="Electron" modified="2024-04-27T16:16:30.648Z" agent="Mozilla/5.0 (Windows NT 10.0; Win64; x64) AppleWebKit/537.36 (KHTML, like Gecko) draw.io/24.2.5 Chrome/120.0.6099.109 Electron/28.1.0 Safari/537.36" etag="rRTVc6tLEaMOM-S_xOO3" version="24.2.5" type="device">
  <diagram name="StrÃ¡nka-1" id="N_Wdjs_MZbsJyk-zGMnj">
    <mxGraphModel dx="1400" dy="591" grid="1" gridSize="10" guides="1" tooltips="1" connect="1" arrows="1" fold="1" page="0" pageScale="1" pageWidth="827" pageHeight="1169" math="0" shadow="0">
      <root>
        <mxCell id="0" />
        <mxCell id="1" parent="0" />
        <mxCell id="QoCjZE7_ZcKGAcCqZ2VT-1" value="" style="shape=loopLimit;whiteSpace=wrap;html=1;size=70;rotation=-90;" parent="1" vertex="1">
          <mxGeometry x="300" y="489" width="173" height="50" as="geometry" />
        </mxCell>
        <mxCell id="QoCjZE7_ZcKGAcCqZ2VT-2" value="" style="rounded=0;whiteSpace=wrap;html=1;" parent="1" vertex="1">
          <mxGeometry x="256" y="97" width="80" height="200" as="geometry" />
        </mxCell>
        <mxCell id="QoCjZE7_ZcKGAcCqZ2VT-4" value="FSM" style="text;html=1;align=center;verticalAlign=middle;resizable=0;points=[];autosize=1;strokeColor=none;fillColor=none;fontSize=16;" parent="1" vertex="1">
          <mxGeometry x="266" y="97" width="60" height="30" as="geometry" />
        </mxCell>
        <mxCell id="QoCjZE7_ZcKGAcCqZ2VT-5" value="DIN" style="text;html=1;align=center;verticalAlign=middle;resizable=0;points=[];autosize=1;fontColor=#FF0000;fontStyle=1" parent="1" vertex="1">
          <mxGeometry x="-120" y="118" width="40" height="30" as="geometry" />
        </mxCell>
        <mxCell id="QoCjZE7_ZcKGAcCqZ2VT-7" value="" style="endArrow=none;html=1;rounded=0;" parent="1" edge="1">
          <mxGeometry width="50" height="50" relative="1" as="geometry">
            <mxPoint x="150" y="127" as="sourcePoint" />
            <mxPoint x="256" y="127" as="targetPoint" />
          </mxGeometry>
        </mxCell>
        <mxCell id="QoCjZE7_ZcKGAcCqZ2VT-10" value="DATA_IN" style="text;html=1;align=center;verticalAlign=middle;resizable=0;points=[];autosize=1;strokeColor=none;fillColor=none;" parent="1" vertex="1">
          <mxGeometry x="191" y="104" width="70" height="30" as="geometry" />
        </mxCell>
        <mxCell id="QoCjZE7_ZcKGAcCqZ2VT-11" value="CLK_CNT" style="text;html=1;align=center;verticalAlign=middle;resizable=0;points=[];autosize=1;strokeColor=none;fillColor=none;" parent="1" vertex="1">
          <mxGeometry x="187" y="155" width="80" height="30" as="geometry" />
        </mxCell>
        <mxCell id="QoCjZE7_ZcKGAcCqZ2VT-12" value="BIT_CNT" style="text;html=1;align=center;verticalAlign=middle;resizable=0;points=[];autosize=1;strokeColor=none;fillColor=none;" parent="1" vertex="1">
          <mxGeometry x="196" y="207" width="70" height="30" as="geometry" />
        </mxCell>
        <mxCell id="QoCjZE7_ZcKGAcCqZ2VT-13" value="" style="endArrow=none;html=1;rounded=0;entryX=0;entryY=0.5;entryDx=0;entryDy=0;exitX=1.025;exitY=0.159;exitDx=0;exitDy=0;exitPerimeter=0;" parent="1" source="QoCjZE7_ZcKGAcCqZ2VT-2" target="aa14wnKSN_EdWKxRWT3--1" edge="1">
          <mxGeometry width="50" height="50" relative="1" as="geometry">
            <mxPoint x="190" y="129.33" as="sourcePoint" />
            <mxPoint x="240" y="129.33" as="targetPoint" />
          </mxGeometry>
        </mxCell>
        <mxCell id="QoCjZE7_ZcKGAcCqZ2VT-14" value="" style="endArrow=none;html=1;rounded=0;edgeStyle=orthogonalEdgeStyle;entryX=0;entryY=0.25;entryDx=0;entryDy=0;exitX=0.096;exitY=0.959;exitDx=0;exitDy=0;exitPerimeter=0;" parent="1" source="QoCjZE7_ZcKGAcCqZ2VT-17" target="aa14wnKSN_EdWKxRWT3--34" edge="1">
          <mxGeometry width="50" height="50" relative="1" as="geometry">
            <mxPoint x="190" y="180" as="sourcePoint" />
            <mxPoint x="430" y="240" as="targetPoint" />
            <Array as="points">
              <mxPoint x="440" y="180" />
              <mxPoint x="440" y="260" />
            </Array>
          </mxGeometry>
        </mxCell>
        <mxCell id="QoCjZE7_ZcKGAcCqZ2VT-15" value="" style="endArrow=none;html=1;rounded=0;" parent="1" edge="1">
          <mxGeometry width="50" height="50" relative="1" as="geometry">
            <mxPoint x="336" y="226.33" as="sourcePoint" />
            <mxPoint x="390" y="227" as="targetPoint" />
          </mxGeometry>
        </mxCell>
        <mxCell id="QoCjZE7_ZcKGAcCqZ2VT-16" value="CLK_EN" style="text;html=1;align=center;verticalAlign=middle;resizable=0;points=[];autosize=1;strokeColor=none;fillColor=none;" parent="1" vertex="1">
          <mxGeometry x="328" y="104" width="70" height="30" as="geometry" />
        </mxCell>
        <mxCell id="QoCjZE7_ZcKGAcCqZ2VT-17" value="READ" style="text;html=1;align=center;verticalAlign=middle;resizable=0;points=[];autosize=1;strokeColor=none;fillColor=none;" parent="1" vertex="1">
          <mxGeometry x="330" y="151" width="60" height="30" as="geometry" />
        </mxCell>
        <mxCell id="QoCjZE7_ZcKGAcCqZ2VT-18" value="VALIDATE" style="text;html=1;align=center;verticalAlign=middle;resizable=0;points=[];autosize=1;strokeColor=none;fillColor=none;" parent="1" vertex="1">
          <mxGeometry x="326" y="201" width="80" height="30" as="geometry" />
        </mxCell>
        <mxCell id="aa14wnKSN_EdWKxRWT3--6" style="edgeStyle=orthogonalEdgeStyle;rounded=0;orthogonalLoop=1;jettySize=auto;html=1;exitX=1;exitY=0.25;exitDx=0;exitDy=0;endArrow=none;endFill=0;" parent="1" source="aa14wnKSN_EdWKxRWT3--1" edge="1">
          <mxGeometry relative="1" as="geometry">
            <mxPoint x="770" y="170" as="targetPoint" />
            <Array as="points">
              <mxPoint x="670" y="110" />
              <mxPoint x="670" y="170" />
            </Array>
          </mxGeometry>
        </mxCell>
        <mxCell id="aa14wnKSN_EdWKxRWT3--11" value="" style="endArrow=none;html=1;rounded=0;entryX=0;entryY=0.75;entryDx=0;entryDy=0;" parent="1" edge="1">
          <mxGeometry width="50" height="50" relative="1" as="geometry">
            <mxPoint x="680" y="195" as="sourcePoint" />
            <mxPoint x="730" y="195" as="targetPoint" />
          </mxGeometry>
        </mxCell>
        <mxCell id="aa14wnKSN_EdWKxRWT3--12" value="&quot;00111&quot;" style="text;html=1;align=center;verticalAlign=middle;resizable=0;points=[];autosize=1;strokeColor=none;fillColor=none;" parent="1" vertex="1">
          <mxGeometry x="675" y="190" width="60" height="30" as="geometry" />
        </mxCell>
        <mxCell id="aa14wnKSN_EdWKxRWT3--18" value="" style="endArrow=none;html=1;rounded=0;entryX=0.749;entryY=1.061;entryDx=0;entryDy=0;edgeStyle=orthogonalEdgeStyle;exitX=0;exitY=0.75;exitDx=0;exitDy=0;entryPerimeter=0;" parent="1" source="aa14wnKSN_EdWKxRWT3--34" target="aa14wnKSN_EdWKxRWT3--17" edge="1">
          <mxGeometry width="50" height="50" relative="1" as="geometry">
            <mxPoint x="400" y="260" as="sourcePoint" />
            <mxPoint x="890" y="181" as="targetPoint" />
            <Array as="points">
              <mxPoint x="440" y="280" />
              <mxPoint x="440" y="390" />
              <mxPoint x="870" y="390" />
              <mxPoint x="870" y="181" />
              <mxPoint x="850" y="181" />
            </Array>
          </mxGeometry>
        </mxCell>
        <mxCell id="aa14wnKSN_EdWKxRWT3--19" value="" style="endArrow=oval;html=1;rounded=0;startArrow=none;startFill=0;endFill=1;edgeStyle=orthogonalEdgeStyle;" parent="1" edge="1">
          <mxGeometry width="50" height="50" relative="1" as="geometry">
            <mxPoint x="770" y="250" as="sourcePoint" />
            <mxPoint x="670" y="170" as="targetPoint" />
            <Array as="points">
              <mxPoint x="670" y="250" />
            </Array>
          </mxGeometry>
        </mxCell>
        <mxCell id="aa14wnKSN_EdWKxRWT3--23" value="" style="endArrow=none;html=1;rounded=0;entryX=0;entryY=0.75;entryDx=0;entryDy=0;" parent="1" edge="1">
          <mxGeometry width="50" height="50" relative="1" as="geometry">
            <mxPoint x="680" y="275" as="sourcePoint" />
            <mxPoint x="730" y="275" as="targetPoint" />
          </mxGeometry>
        </mxCell>
        <mxCell id="aa14wnKSN_EdWKxRWT3--24" value="&quot;01111&quot;" style="text;html=1;align=center;verticalAlign=middle;resizable=0;points=[];autosize=1;strokeColor=none;fillColor=none;" parent="1" vertex="1">
          <mxGeometry x="675" y="270" width="60" height="30" as="geometry" />
        </mxCell>
        <mxCell id="aa14wnKSN_EdWKxRWT3--26" value="" style="endArrow=none;html=1;rounded=0;edgeStyle=orthogonalEdgeStyle;exitX=0.75;exitY=1;exitDx=0;exitDy=0;entryX=0.742;entryY=1.041;entryDx=0;entryDy=0;entryPerimeter=0;" parent="1" source="aa14wnKSN_EdWKxRWT3--1" target="aa14wnKSN_EdWKxRWT3--25" edge="1">
          <mxGeometry width="50" height="50" relative="1" as="geometry">
            <mxPoint x="580" y="200" as="sourcePoint" />
            <mxPoint x="890" y="260" as="targetPoint" />
            <Array as="points">
              <mxPoint x="580" y="220" />
              <mxPoint x="860" y="220" />
              <mxPoint x="860" y="260" />
              <mxPoint x="850" y="260" />
            </Array>
          </mxGeometry>
        </mxCell>
        <mxCell id="aa14wnKSN_EdWKxRWT3--39" style="edgeStyle=orthogonalEdgeStyle;rounded=0;orthogonalLoop=1;jettySize=auto;html=1;exitX=1;exitY=0.25;exitDx=0;exitDy=0;endArrow=none;endFill=0;" parent="1" source="aa14wnKSN_EdWKxRWT3--27" edge="1">
          <mxGeometry relative="1" as="geometry">
            <mxPoint x="770" y="320" as="targetPoint" />
            <Array as="points">
              <mxPoint x="630" y="250" />
              <mxPoint x="630" y="320" />
              <mxPoint x="740" y="320" />
            </Array>
          </mxGeometry>
        </mxCell>
        <mxCell id="aa14wnKSN_EdWKxRWT3--32" value="BIT_CNTR" style="text;html=1;align=center;verticalAlign=middle;resizable=0;points=[];autosize=1;strokeColor=none;fillColor=none;" parent="1" vertex="1">
          <mxGeometry x="508" y="207" width="80" height="30" as="geometry" />
        </mxCell>
        <mxCell id="aa14wnKSN_EdWKxRWT3--34" value="&lt;div style=&quot;&quot;&gt;&lt;b style=&quot;background-color: initial;&quot;&gt;&lt;font style=&quot;font-size: 14px;&quot;&gt;&amp;amp;&lt;/font&gt;&lt;/b&gt;&lt;/div&gt;&lt;div style=&quot;&quot;&gt;&lt;br&gt;&lt;/div&gt;" style="rounded=0;whiteSpace=wrap;html=1;align=right;fontColor=#000000;" parent="1" vertex="1">
          <mxGeometry x="448" y="250" width="30" height="40" as="geometry" />
        </mxCell>
        <mxCell id="aa14wnKSN_EdWKxRWT3--36" value="DOUT_VLD" style="text;html=1;align=center;verticalAlign=middle;resizable=0;points=[];autosize=1;strokeColor=none;fillColor=none;fontStyle=1;fontColor=#FF0000;" parent="1" vertex="1">
          <mxGeometry x="325" y="220" width="90" height="30" as="geometry" />
        </mxCell>
        <mxCell id="aa14wnKSN_EdWKxRWT3--43" value="" style="endArrow=none;html=1;rounded=0;entryX=0;entryY=0.75;entryDx=0;entryDy=0;" parent="1" edge="1">
          <mxGeometry width="50" height="50" relative="1" as="geometry">
            <mxPoint x="680" y="341" as="sourcePoint" />
            <mxPoint x="730" y="341" as="targetPoint" />
          </mxGeometry>
        </mxCell>
        <mxCell id="aa14wnKSN_EdWKxRWT3--44" value="&quot;1000&lt;span style=&quot;background-color: initial;&quot;&gt;&quot;&lt;/span&gt;" style="text;html=1;align=center;verticalAlign=middle;resizable=0;points=[];autosize=1;strokeColor=none;fillColor=none;" parent="1" vertex="1">
          <mxGeometry x="675" y="336" width="60" height="30" as="geometry" />
        </mxCell>
        <mxCell id="aa14wnKSN_EdWKxRWT3--46" style="edgeStyle=orthogonalEdgeStyle;rounded=0;orthogonalLoop=1;jettySize=auto;html=1;endArrow=none;endFill=0;entryX=0.75;entryY=1;entryDx=0;entryDy=0;exitX=0.75;exitY=0.3;exitDx=0;exitDy=0;exitPerimeter=0;" parent="1" source="aa14wnKSN_EdWKxRWT3--45" target="aa14wnKSN_EdWKxRWT3--27" edge="1">
          <mxGeometry relative="1" as="geometry">
            <mxPoint x="580" y="320" as="targetPoint" />
            <mxPoint x="890" y="330" as="sourcePoint" />
            <Array as="points">
              <mxPoint x="850" y="336" />
              <mxPoint x="860" y="336" />
              <mxPoint x="860" y="370" />
              <mxPoint x="580" y="370" />
            </Array>
          </mxGeometry>
        </mxCell>
        <mxCell id="aa14wnKSN_EdWKxRWT3--47" value="" style="endArrow=oval;html=1;rounded=0;edgeStyle=orthogonalEdgeStyle;endFill=1;exitX=0.005;exitY=0.666;exitDx=0;exitDy=0;exitPerimeter=0;" parent="1" source="QoCjZE7_ZcKGAcCqZ2VT-2" edge="1">
          <mxGeometry width="50" height="50" relative="1" as="geometry">
            <mxPoint x="210" y="230" as="sourcePoint" />
            <mxPoint x="630" y="320" as="targetPoint" />
            <Array as="points">
              <mxPoint x="210" y="230" />
              <mxPoint x="210" y="320" />
            </Array>
          </mxGeometry>
        </mxCell>
        <mxCell id="aa14wnKSN_EdWKxRWT3--48" value="" style="endArrow=oval;html=1;rounded=0;edgeStyle=orthogonalEdgeStyle;endFill=1;exitX=-0.01;exitY=0.415;exitDx=0;exitDy=0;exitPerimeter=0;" parent="1" source="QoCjZE7_ZcKGAcCqZ2VT-2" edge="1">
          <mxGeometry width="50" height="50" relative="1" as="geometry">
            <mxPoint x="170" y="180" as="sourcePoint" />
            <mxPoint x="670" y="110" as="targetPoint" />
            <Array as="points">
              <mxPoint x="190" y="180" />
              <mxPoint x="190" y="60" />
              <mxPoint x="670" y="60" />
            </Array>
          </mxGeometry>
        </mxCell>
        <mxCell id="aa14wnKSN_EdWKxRWT3--49" value="[4:0]" style="text;html=1;align=center;verticalAlign=middle;resizable=0;points=[];autosize=1;strokeColor=none;fillColor=none;" parent="1" vertex="1">
          <mxGeometry x="589" y="80" width="50" height="30" as="geometry" />
        </mxCell>
        <mxCell id="aa14wnKSN_EdWKxRWT3--50" value="[3:0]" style="text;html=1;align=center;verticalAlign=middle;resizable=0;points=[];autosize=1;strokeColor=none;fillColor=none;" parent="1" vertex="1">
          <mxGeometry x="589" y="220" width="50" height="30" as="geometry" />
        </mxCell>
        <mxCell id="aa14wnKSN_EdWKxRWT3--54" value="DATA" style="text;html=1;align=center;verticalAlign=middle;resizable=0;points=[];autosize=1;strokeColor=none;fillColor=none;" parent="1" vertex="1">
          <mxGeometry x="206" y="370" width="50" height="30" as="geometry" />
        </mxCell>
        <mxCell id="aa14wnKSN_EdWKxRWT3--55" value="SELECT" style="text;html=1;align=center;verticalAlign=middle;resizable=0;points=[];autosize=1;strokeColor=none;fillColor=none;rotation=0;" parent="1" vertex="1">
          <mxGeometry x="300" y="496" width="70" height="30" as="geometry" />
        </mxCell>
        <mxCell id="aa14wnKSN_EdWKxRWT3--56" value="&lt;span style=&quot;font-size: 10px;&quot;&gt;000&lt;/span&gt;" style="text;align=center;verticalAlign=middle;resizable=0;points=[];autosize=1;strokeColor=none;fillColor=none;horizontal=1;html=1;spacingBottom=0;fontSize=10;" parent="1" vertex="1">
          <mxGeometry x="380" y="436" width="40" height="20" as="geometry" />
        </mxCell>
        <mxCell id="aa14wnKSN_EdWKxRWT3--57" value="" style="endArrow=none;html=1;rounded=0;exitX=0.896;exitY=1.004;exitDx=0;exitDy=0;exitPerimeter=0;" parent="1" edge="1">
          <mxGeometry width="50" height="50" relative="1" as="geometry">
            <mxPoint x="411.70000000000005" y="446.49199999999996" as="sourcePoint" />
            <mxPoint x="480" y="447" as="targetPoint" />
          </mxGeometry>
        </mxCell>
        <mxCell id="aa14wnKSN_EdWKxRWT3--60" style="edgeStyle=orthogonalEdgeStyle;rounded=0;orthogonalLoop=1;jettySize=auto;html=1;exitX=0;exitY=0.25;exitDx=0;exitDy=0;endArrow=none;endFill=0;" parent="1" edge="1">
          <mxGeometry relative="1" as="geometry">
            <mxPoint x="460" y="440" as="targetPoint" />
            <mxPoint x="480" y="440.0000000000001" as="sourcePoint" />
          </mxGeometry>
        </mxCell>
        <mxCell id="pnvJbUOQim8DPk4RIkia-12" style="rounded=0;orthogonalLoop=1;jettySize=auto;html=1;exitX=1;exitY=0.5;exitDx=0;exitDy=0;endArrow=none;endFill=0;" parent="1" source="aa14wnKSN_EdWKxRWT3--58" edge="1">
          <mxGeometry relative="1" as="geometry">
            <mxPoint x="540" y="510" as="targetPoint" />
          </mxGeometry>
        </mxCell>
        <mxCell id="aa14wnKSN_EdWKxRWT3--58" value="&lt;font style=&quot;font-size: 10px;&quot;&gt;REG1&lt;/font&gt;" style="whiteSpace=wrap;html=1;" parent="1" vertex="1">
          <mxGeometry x="480" y="456" width="30" height="20" as="geometry" />
        </mxCell>
        <mxCell id="aa14wnKSN_EdWKxRWT3--61" value="&lt;font style=&quot;font-size: 8px;&quot;&gt;EN&lt;/font&gt;" style="text;html=1;align=center;verticalAlign=middle;resizable=0;points=[];autosize=1;strokeColor=none;fillColor=none;" parent="1" vertex="1">
          <mxGeometry x="428" y="434" width="30" height="30" as="geometry" />
        </mxCell>
        <mxCell id="aa14wnKSN_EdWKxRWT3--63" value="" style="edgeStyle=orthogonalEdgeStyle;rounded=0;orthogonalLoop=1;jettySize=auto;html=1;endArrow=none;endFill=0;startArrow=oval;startFill=1;entryX=0.986;entryY=0.166;entryDx=0;entryDy=0;entryPerimeter=0;" parent="1" target="pnvJbUOQim8DPk4RIkia-15" edge="1">
          <mxGeometry relative="1" as="geometry">
            <mxPoint x="295.5" y="320.19" as="sourcePoint" />
            <mxPoint x="296" y="520" as="targetPoint" />
            <Array as="points">
              <mxPoint x="296" y="519" />
            </Array>
          </mxGeometry>
        </mxCell>
        <mxCell id="aa14wnKSN_EdWKxRWT3--64" value="" style="endArrow=oval;html=1;rounded=0;endFill=1;" parent="1" edge="1">
          <mxGeometry width="50" height="50" relative="1" as="geometry">
            <mxPoint x="463" y="440" as="sourcePoint" />
            <mxPoint x="463" y="460" as="targetPoint" />
          </mxGeometry>
        </mxCell>
        <mxCell id="aa14wnKSN_EdWKxRWT3--65" style="edgeStyle=orthogonalEdgeStyle;rounded=0;orthogonalLoop=1;jettySize=auto;html=1;exitX=0;exitY=0.25;exitDx=0;exitDy=0;endArrow=none;endFill=0;" parent="1" edge="1">
          <mxGeometry relative="1" as="geometry">
            <mxPoint x="460" y="460" as="targetPoint" />
            <mxPoint x="480" y="460.0000000000001" as="sourcePoint" />
          </mxGeometry>
        </mxCell>
        <mxCell id="pnvJbUOQim8DPk4RIkia-11" style="rounded=0;orthogonalLoop=1;jettySize=auto;html=1;exitX=1;exitY=0.5;exitDx=0;exitDy=0;endArrow=none;endFill=0;" parent="1" source="aa14wnKSN_EdWKxRWT3--66" edge="1">
          <mxGeometry relative="1" as="geometry">
            <mxPoint x="540" y="510" as="targetPoint" />
          </mxGeometry>
        </mxCell>
        <mxCell id="aa14wnKSN_EdWKxRWT3--66" value="&lt;font style=&quot;font-size: 10px;&quot;&gt;REG2&lt;/font&gt;" style="whiteSpace=wrap;html=1;" parent="1" vertex="1">
          <mxGeometry x="480" y="476" width="30" height="20" as="geometry" />
        </mxCell>
        <mxCell id="aa14wnKSN_EdWKxRWT3--67" value="" style="endArrow=oval;html=1;rounded=0;endFill=1;" parent="1" edge="1">
          <mxGeometry width="50" height="50" relative="1" as="geometry">
            <mxPoint x="463" y="460" as="sourcePoint" />
            <mxPoint x="463" y="480" as="targetPoint" />
          </mxGeometry>
        </mxCell>
        <mxCell id="aa14wnKSN_EdWKxRWT3--68" style="edgeStyle=orthogonalEdgeStyle;rounded=0;orthogonalLoop=1;jettySize=auto;html=1;exitX=0;exitY=0.25;exitDx=0;exitDy=0;endArrow=none;endFill=0;" parent="1" edge="1">
          <mxGeometry relative="1" as="geometry">
            <mxPoint x="460" y="480" as="targetPoint" />
            <mxPoint x="480" y="480.0000000000001" as="sourcePoint" />
          </mxGeometry>
        </mxCell>
        <mxCell id="pnvJbUOQim8DPk4RIkia-10" style="rounded=0;orthogonalLoop=1;jettySize=auto;html=1;exitX=1;exitY=0.5;exitDx=0;exitDy=0;endArrow=none;endFill=0;" parent="1" source="aa14wnKSN_EdWKxRWT3--69" edge="1">
          <mxGeometry relative="1" as="geometry">
            <mxPoint x="540" y="510" as="targetPoint" />
          </mxGeometry>
        </mxCell>
        <mxCell id="aa14wnKSN_EdWKxRWT3--69" value="&lt;font style=&quot;font-size: 10px;&quot;&gt;REG3&lt;/font&gt;" style="whiteSpace=wrap;html=1;" parent="1" vertex="1">
          <mxGeometry x="480" y="496" width="30" height="20" as="geometry" />
        </mxCell>
        <mxCell id="aa14wnKSN_EdWKxRWT3--70" value="" style="endArrow=oval;html=1;rounded=0;endFill=1;" parent="1" edge="1">
          <mxGeometry width="50" height="50" relative="1" as="geometry">
            <mxPoint x="463" y="480" as="sourcePoint" />
            <mxPoint x="463" y="500" as="targetPoint" />
          </mxGeometry>
        </mxCell>
        <mxCell id="aa14wnKSN_EdWKxRWT3--71" style="edgeStyle=orthogonalEdgeStyle;rounded=0;orthogonalLoop=1;jettySize=auto;html=1;exitX=0;exitY=0.25;exitDx=0;exitDy=0;endArrow=none;endFill=0;" parent="1" edge="1">
          <mxGeometry relative="1" as="geometry">
            <mxPoint x="460" y="500" as="targetPoint" />
            <mxPoint x="480" y="500.0000000000001" as="sourcePoint" />
          </mxGeometry>
        </mxCell>
        <mxCell id="pnvJbUOQim8DPk4RIkia-9" style="rounded=0;orthogonalLoop=1;jettySize=auto;html=1;exitX=1;exitY=0.5;exitDx=0;exitDy=0;endArrow=none;endFill=0;" parent="1" source="aa14wnKSN_EdWKxRWT3--72" edge="1">
          <mxGeometry relative="1" as="geometry">
            <mxPoint x="540" y="510" as="targetPoint" />
          </mxGeometry>
        </mxCell>
        <mxCell id="aa14wnKSN_EdWKxRWT3--72" value="&lt;font style=&quot;font-size: 10px;&quot;&gt;REG4&lt;/font&gt;" style="whiteSpace=wrap;html=1;" parent="1" vertex="1">
          <mxGeometry x="480" y="516" width="30" height="20" as="geometry" />
        </mxCell>
        <mxCell id="aa14wnKSN_EdWKxRWT3--73" value="" style="endArrow=oval;html=1;rounded=0;endFill=1;" parent="1" edge="1">
          <mxGeometry width="50" height="50" relative="1" as="geometry">
            <mxPoint x="463" y="500" as="sourcePoint" />
            <mxPoint x="463" y="520" as="targetPoint" />
          </mxGeometry>
        </mxCell>
        <mxCell id="aa14wnKSN_EdWKxRWT3--74" style="edgeStyle=orthogonalEdgeStyle;rounded=0;orthogonalLoop=1;jettySize=auto;html=1;exitX=0;exitY=0.25;exitDx=0;exitDy=0;endArrow=none;endFill=0;" parent="1" edge="1">
          <mxGeometry relative="1" as="geometry">
            <mxPoint x="460" y="520" as="targetPoint" />
            <mxPoint x="480" y="520.0000000000001" as="sourcePoint" />
          </mxGeometry>
        </mxCell>
        <mxCell id="pnvJbUOQim8DPk4RIkia-8" style="rounded=0;orthogonalLoop=1;jettySize=auto;html=1;exitX=1;exitY=0.5;exitDx=0;exitDy=0;endArrow=none;endFill=0;" parent="1" source="aa14wnKSN_EdWKxRWT3--75" edge="1">
          <mxGeometry relative="1" as="geometry">
            <mxPoint x="540" y="510" as="targetPoint" />
          </mxGeometry>
        </mxCell>
        <mxCell id="aa14wnKSN_EdWKxRWT3--75" value="&lt;font style=&quot;font-size: 10px;&quot;&gt;REG5&lt;/font&gt;" style="whiteSpace=wrap;html=1;" parent="1" vertex="1">
          <mxGeometry x="480" y="536" width="30" height="20" as="geometry" />
        </mxCell>
        <mxCell id="aa14wnKSN_EdWKxRWT3--76" value="" style="endArrow=oval;html=1;rounded=0;endFill=1;" parent="1" edge="1">
          <mxGeometry width="50" height="50" relative="1" as="geometry">
            <mxPoint x="463" y="520" as="sourcePoint" />
            <mxPoint x="463" y="540" as="targetPoint" />
          </mxGeometry>
        </mxCell>
        <mxCell id="aa14wnKSN_EdWKxRWT3--77" style="edgeStyle=orthogonalEdgeStyle;rounded=0;orthogonalLoop=1;jettySize=auto;html=1;exitX=0;exitY=0.25;exitDx=0;exitDy=0;endArrow=none;endFill=0;" parent="1" edge="1">
          <mxGeometry relative="1" as="geometry">
            <mxPoint x="460" y="540" as="targetPoint" />
            <mxPoint x="480" y="540.0000000000001" as="sourcePoint" />
          </mxGeometry>
        </mxCell>
        <mxCell id="pnvJbUOQim8DPk4RIkia-7" style="rounded=0;orthogonalLoop=1;jettySize=auto;html=1;exitX=1;exitY=0.5;exitDx=0;exitDy=0;endArrow=none;endFill=0;" parent="1" source="aa14wnKSN_EdWKxRWT3--78" edge="1">
          <mxGeometry relative="1" as="geometry">
            <mxPoint x="540" y="510" as="targetPoint" />
          </mxGeometry>
        </mxCell>
        <mxCell id="aa14wnKSN_EdWKxRWT3--78" value="&lt;font style=&quot;font-size: 10px;&quot;&gt;REG6&lt;/font&gt;" style="whiteSpace=wrap;html=1;" parent="1" vertex="1">
          <mxGeometry x="480" y="556" width="30" height="20" as="geometry" />
        </mxCell>
        <mxCell id="aa14wnKSN_EdWKxRWT3--79" value="" style="endArrow=oval;html=1;rounded=0;endFill=1;" parent="1" edge="1">
          <mxGeometry width="50" height="50" relative="1" as="geometry">
            <mxPoint x="463" y="540" as="sourcePoint" />
            <mxPoint x="463" y="560" as="targetPoint" />
          </mxGeometry>
        </mxCell>
        <mxCell id="aa14wnKSN_EdWKxRWT3--80" style="edgeStyle=orthogonalEdgeStyle;rounded=0;orthogonalLoop=1;jettySize=auto;html=1;exitX=0;exitY=0.25;exitDx=0;exitDy=0;endArrow=none;endFill=0;" parent="1" edge="1">
          <mxGeometry relative="1" as="geometry">
            <mxPoint x="460" y="560" as="targetPoint" />
            <mxPoint x="480" y="560.0000000000001" as="sourcePoint" />
          </mxGeometry>
        </mxCell>
        <mxCell id="pnvJbUOQim8DPk4RIkia-6" style="rounded=0;orthogonalLoop=1;jettySize=auto;html=1;exitX=1;exitY=0.5;exitDx=0;exitDy=0;endArrow=none;endFill=0;" parent="1" source="aa14wnKSN_EdWKxRWT3--81" edge="1">
          <mxGeometry relative="1" as="geometry">
            <mxPoint x="540" y="510" as="targetPoint" />
          </mxGeometry>
        </mxCell>
        <mxCell id="aa14wnKSN_EdWKxRWT3--81" value="&lt;font style=&quot;font-size: 10px;&quot;&gt;REG7&lt;/font&gt;" style="whiteSpace=wrap;html=1;" parent="1" vertex="1">
          <mxGeometry x="480" y="576" width="30" height="20" as="geometry" />
        </mxCell>
        <mxCell id="aa14wnKSN_EdWKxRWT3--82" value="" style="endArrow=oval;html=1;rounded=0;endFill=1;" parent="1" edge="1">
          <mxGeometry width="50" height="50" relative="1" as="geometry">
            <mxPoint x="463" y="560" as="sourcePoint" />
            <mxPoint x="463" y="580" as="targetPoint" />
          </mxGeometry>
        </mxCell>
        <mxCell id="aa14wnKSN_EdWKxRWT3--83" style="edgeStyle=orthogonalEdgeStyle;rounded=0;orthogonalLoop=1;jettySize=auto;html=1;exitX=0;exitY=0.25;exitDx=0;exitDy=0;endArrow=none;endFill=0;" parent="1" edge="1">
          <mxGeometry relative="1" as="geometry">
            <mxPoint x="460" y="580" as="targetPoint" />
            <mxPoint x="480" y="580.0000000000001" as="sourcePoint" />
          </mxGeometry>
        </mxCell>
        <mxCell id="pnvJbUOQim8DPk4RIkia-13" style="rounded=0;orthogonalLoop=1;jettySize=auto;html=1;exitX=1;exitY=0.5;exitDx=0;exitDy=0;endArrow=none;endFill=0;" parent="1" source="aa14wnKSN_EdWKxRWT3--84" edge="1">
          <mxGeometry relative="1" as="geometry">
            <mxPoint x="540" y="510" as="targetPoint" />
          </mxGeometry>
        </mxCell>
        <mxCell id="aa14wnKSN_EdWKxRWT3--84" value="&lt;font style=&quot;font-size: 10px;&quot;&gt;REG0&lt;/font&gt;" style="whiteSpace=wrap;html=1;" parent="1" vertex="1">
          <mxGeometry x="480" y="436" width="30" height="20" as="geometry" />
        </mxCell>
        <mxCell id="aa14wnKSN_EdWKxRWT3--86" value="" style="endArrow=none;html=1;rounded=0;exitX=0.878;exitY=1.024;exitDx=0;exitDy=0;exitPerimeter=0;" parent="1" edge="1">
          <mxGeometry width="50" height="50" relative="1" as="geometry">
            <mxPoint x="412" y="467.62" as="sourcePoint" />
            <mxPoint x="480" y="467.62" as="targetPoint" />
          </mxGeometry>
        </mxCell>
        <mxCell id="aa14wnKSN_EdWKxRWT3--87" value="" style="endArrow=none;html=1;rounded=0;exitX=0.878;exitY=1.024;exitDx=0;exitDy=0;exitPerimeter=0;" parent="1" edge="1">
          <mxGeometry width="50" height="50" relative="1" as="geometry">
            <mxPoint x="412" y="488" as="sourcePoint" />
            <mxPoint x="480" y="488" as="targetPoint" />
          </mxGeometry>
        </mxCell>
        <mxCell id="aa14wnKSN_EdWKxRWT3--88" value="" style="endArrow=none;html=1;rounded=0;exitX=0.878;exitY=1.024;exitDx=0;exitDy=0;exitPerimeter=0;" parent="1" edge="1">
          <mxGeometry width="50" height="50" relative="1" as="geometry">
            <mxPoint x="412" y="506.62" as="sourcePoint" />
            <mxPoint x="480" y="506.62" as="targetPoint" />
          </mxGeometry>
        </mxCell>
        <mxCell id="aa14wnKSN_EdWKxRWT3--89" value="" style="endArrow=none;html=1;rounded=0;exitX=0.878;exitY=1.024;exitDx=0;exitDy=0;exitPerimeter=0;" parent="1" edge="1">
          <mxGeometry width="50" height="50" relative="1" as="geometry">
            <mxPoint x="412" y="528" as="sourcePoint" />
            <mxPoint x="480" y="528" as="targetPoint" />
          </mxGeometry>
        </mxCell>
        <mxCell id="aa14wnKSN_EdWKxRWT3--90" value="" style="endArrow=none;html=1;rounded=0;exitX=0.878;exitY=1.024;exitDx=0;exitDy=0;exitPerimeter=0;" parent="1" edge="1">
          <mxGeometry width="50" height="50" relative="1" as="geometry">
            <mxPoint x="412" y="548.62" as="sourcePoint" />
            <mxPoint x="480" y="548.62" as="targetPoint" />
          </mxGeometry>
        </mxCell>
        <mxCell id="aa14wnKSN_EdWKxRWT3--91" value="" style="endArrow=none;html=1;rounded=0;exitX=0.878;exitY=1.024;exitDx=0;exitDy=0;exitPerimeter=0;" parent="1" edge="1">
          <mxGeometry width="50" height="50" relative="1" as="geometry">
            <mxPoint x="412" y="570" as="sourcePoint" />
            <mxPoint x="480" y="570" as="targetPoint" />
          </mxGeometry>
        </mxCell>
        <mxCell id="aa14wnKSN_EdWKxRWT3--92" value="" style="endArrow=none;html=1;rounded=0;exitX=0.878;exitY=1.024;exitDx=0;exitDy=0;exitPerimeter=0;" parent="1" edge="1">
          <mxGeometry width="50" height="50" relative="1" as="geometry">
            <mxPoint x="412" y="588.62" as="sourcePoint" />
            <mxPoint x="480" y="588.62" as="targetPoint" />
          </mxGeometry>
        </mxCell>
        <mxCell id="aa14wnKSN_EdWKxRWT3--93" value="DC 3-8" style="text;html=1;align=center;verticalAlign=middle;resizable=0;points=[];autosize=1;strokeColor=none;fillColor=none;rotation=-90;" parent="1" vertex="1">
          <mxGeometry x="345" y="497" width="60" height="30" as="geometry" />
        </mxCell>
        <mxCell id="aa14wnKSN_EdWKxRWT3--95" value="&lt;span style=&quot;font-size: 10px;&quot;&gt;001&lt;/span&gt;&lt;span style=&quot;color: rgba(0, 0, 0, 0); font-family: monospace; font-size: 0px; text-align: start;&quot;&gt;%3CmxGraphModel%3E%3Croot%3E%3CmxCell%20id%3D%220%22%2F%3E%3CmxCell%20id%3D%221%22%20parent%3D%220%22%2F%3E%3CmxCell%20id%3D%222%22%20value%3D%22%26lt%3Bspan%20style%3D%26quot%3Bfont-size%3A%2010px%3B%26quot%3B%26gt%3B000%26lt%3B%2Fspan%26gt%3B%22%20style%3D%22text%3Balign%3Dcenter%3BverticalAlign%3Dmiddle%3Bresizable%3D0%3Bpoints%3D%5B%5D%3Bautosize%3D1%3BstrokeColor%3Dnone%3BfillColor%3Dnone%3Bhorizontal%3D1%3Bhtml%3D1%3BspacingBottom%3D0%3BfontSize%3D10%3B%22%20vertex%3D%221%22%20parent%3D%221%22%3E%3CmxGeometry%20x%3D%22380%22%20y%3D%22439%22%20width%3D%2240%22%20height%3D%2220%22%20as%3D%22geometry%22%2F%3E%3C%2FmxCell%3E%3C%2Froot%3E%3C%2FmxGraphModel%3E&lt;/span&gt;" style="text;align=center;verticalAlign=middle;resizable=0;points=[];autosize=1;strokeColor=none;fillColor=none;horizontal=1;html=1;spacingBottom=0;fontSize=10;" parent="1" vertex="1">
          <mxGeometry x="381" y="458" width="40" height="20" as="geometry" />
        </mxCell>
        <mxCell id="aa14wnKSN_EdWKxRWT3--96" value="&lt;span style=&quot;font-size: 10px;&quot;&gt;010&lt;/span&gt;&lt;span style=&quot;color: rgba(0, 0, 0, 0); font-family: monospace; font-size: 0px; text-align: start;&quot;&gt;%3CmxGraphModel%3E%3Croot%3E%3CmxCell%20id%3D%220%22%2F%3E%3CmxCell%20id%3D%221%22%20parent%3D%220%22%2F%3E%3CmxCell%20id%3D%222%22%20value%3D%22%26lt%3Bspan%20style%3D%26quot%3Bfont-size%3A%2010px%3B%26quot%3B%26gt%3B000%26lt%3B%2Fspan%26gt%3B%22%20style%3D%22text%3Balign%3Dcenter%3BverticalAlign%3Dmiddle%3Bresizable%3D0%3Bpoints%3D%5B%5D%3Bautosize%3D1%3BstrokeColor%3Dnone%3BfillColor%3Dnone%3Bhorizontal%3D1%3Bhtml%3D1%3BspacingBottom%3D0%3BfontSize%3D10%3B%22%20vertex%3D%221%22%20parent%3D%221%22%3E%3CmxGeometry%20x%3D%22380%22%20y%3D%22439%22%20width%3D%2240%22%20height%3D%2220%22%20as%3D%22geometry%22%2F%3E%3C%2FmxCell%3E%3C%2Froot%3E%3C%2FmxGraphModel%3E&lt;/span&gt;" style="text;align=center;verticalAlign=middle;resizable=0;points=[];autosize=1;strokeColor=none;fillColor=none;horizontal=1;html=1;spacingBottom=0;fontSize=10;" parent="1" vertex="1">
          <mxGeometry x="381" y="479" width="40" height="20" as="geometry" />
        </mxCell>
        <mxCell id="aa14wnKSN_EdWKxRWT3--97" value="011" style="text;align=center;verticalAlign=middle;resizable=0;points=[];autosize=1;strokeColor=none;fillColor=none;horizontal=1;html=1;spacingBottom=0;fontSize=10;" parent="1" vertex="1">
          <mxGeometry x="382" y="498" width="40" height="20" as="geometry" />
        </mxCell>
        <mxCell id="aa14wnKSN_EdWKxRWT3--98" value="100&lt;span style=&quot;color: rgba(0, 0, 0, 0); font-family: monospace; font-size: 0px; text-align: start;&quot;&gt;%3CmxGraphModel%3E%3Croot%3E%3CmxCell%20id%3D%220%22%2F%3E%3CmxCell%20id%3D%221%22%20parent%3D%220%22%2F%3E%3CmxCell%20id%3D%222%22%20value%3D%22%26lt%3Bspan%20style%3D%26quot%3Bfont-size%3A%2010px%3B%26quot%3B%26gt%3B010%26lt%3B%2Fspan%26gt%3B%26lt%3Bspan%20style%3D%26quot%3Bcolor%3A%20rgba(0%2C%200%2C%200%2C%200)%3B%20font-family%3A%20monospace%3B%20font-size%3A%200px%3B%20text-align%3A%20start%3B%26quot%3B%26gt%3B%253CmxGraphModel%253E%253Croot%253E%253CmxCell%2520id%253D%25220%2522%252F%253E%253CmxCell%2520id%253D%25221%2522%2520parent%253D%25220%2522%252F%253E%253CmxCell%2520id%253D%25222%2522%2520value%253D%2522%2526lt%253Bspan%2520style%253D%2526quot%253Bfont-size%253A%252010px%253B%2526quot%253B%2526gt%253B000%2526lt%253B%252Fspan%2526gt%253B%2522%2520style%253D%2522text%253Balign%253Dcenter%253BverticalAlign%253Dmiddle%253Bresizable%253D0%253Bpoints%253D%255B%255D%253Bautosize%253D1%253BstrokeColor%253Dnone%253BfillColor%253Dnone%253Bhorizontal%253D1%253Bhtml%253D1%253BspacingBottom%253D0%253BfontSize%253D10%253B%2522%2520vertex%253D%25221%2522%2520parent%253D%25221%2522%253E%253CmxGeometry%2520x%253D%2522380%2522%2520y%253D%2522439%2522%2520width%253D%252240%2522%2520height%253D%252220%2522%2520as%253D%2522geometry%2522%252F%253E%253C%252FmxCell%253E%253C%252Froot%253E%253C%252FmxGraphModel%253E%26lt%3B%2Fspan%26gt%3B%22%20style%3D%22text%3Balign%3Dcenter%3BverticalAlign%3Dmiddle%3Bresizable%3D0%3Bpoints%3D%5B%5D%3Bautosize%3D1%3BstrokeColor%3Dnone%3BfillColor%3Dnone%3Bhorizontal%3D1%3Bhtml%3D1%3BspacingBottom%3D0%3BfontSize%3D10%3B%22%20vertex%3D%221%22%20parent%3D%221%22%3E%3CmxGeometry%20x%3D%22379%22%20y%3D%22479%22%20width%3D%2240%22%20height%3D%2220%22%20as%3D%22geometry%22%2F%3E%3C%2FmxCell%3E%3C%2Froot%3E%3C%2FmxGraphModel%3E&lt;/span&gt;" style="text;align=center;verticalAlign=middle;resizable=0;points=[];autosize=1;strokeColor=none;fillColor=none;horizontal=1;html=1;spacingBottom=0;fontSize=10;" parent="1" vertex="1">
          <mxGeometry x="381" y="518" width="40" height="20" as="geometry" />
        </mxCell>
        <mxCell id="aa14wnKSN_EdWKxRWT3--99" value="101" style="text;align=center;verticalAlign=middle;resizable=0;points=[];autosize=1;strokeColor=none;fillColor=none;horizontal=1;html=1;spacingBottom=0;fontSize=10;" parent="1" vertex="1">
          <mxGeometry x="381" y="539" width="40" height="20" as="geometry" />
        </mxCell>
        <mxCell id="aa14wnKSN_EdWKxRWT3--100" value="110" style="text;align=center;verticalAlign=middle;resizable=0;points=[];autosize=1;strokeColor=none;fillColor=none;horizontal=1;html=1;spacingBottom=0;fontSize=10;" parent="1" vertex="1">
          <mxGeometry x="381" y="560" width="40" height="20" as="geometry" />
        </mxCell>
        <mxCell id="aa14wnKSN_EdWKxRWT3--101" value="111" style="text;align=center;verticalAlign=middle;resizable=0;points=[];autosize=1;strokeColor=none;fillColor=none;horizontal=1;html=1;spacingBottom=0;fontSize=10;" parent="1" vertex="1">
          <mxGeometry x="381" y="579" width="40" height="20" as="geometry" />
        </mxCell>
        <mxCell id="aa14wnKSN_EdWKxRWT3--104" value="&lt;font style=&quot;font-size: 8px;&quot;&gt;EN&lt;/font&gt;" style="text;html=1;align=center;verticalAlign=middle;resizable=0;points=[];autosize=1;strokeColor=none;fillColor=none;" parent="1" vertex="1">
          <mxGeometry x="428" y="456" width="30" height="30" as="geometry" />
        </mxCell>
        <mxCell id="aa14wnKSN_EdWKxRWT3--107" value="&lt;font style=&quot;font-size: 8px;&quot;&gt;EN&lt;/font&gt;" style="text;html=1;align=center;verticalAlign=middle;resizable=0;points=[];autosize=1;strokeColor=none;fillColor=none;" parent="1" vertex="1">
          <mxGeometry x="428" y="476" width="30" height="30" as="geometry" />
        </mxCell>
        <mxCell id="aa14wnKSN_EdWKxRWT3--108" value="&lt;font style=&quot;font-size: 8px;&quot;&gt;EN&lt;/font&gt;" style="text;html=1;align=center;verticalAlign=middle;resizable=0;points=[];autosize=1;strokeColor=none;fillColor=none;" parent="1" vertex="1">
          <mxGeometry x="428" y="495" width="30" height="30" as="geometry" />
        </mxCell>
        <mxCell id="aa14wnKSN_EdWKxRWT3--110" value="&lt;font style=&quot;font-size: 8px;&quot;&gt;EN&lt;/font&gt;" style="text;html=1;align=center;verticalAlign=middle;resizable=0;points=[];autosize=1;strokeColor=none;fillColor=none;" parent="1" vertex="1">
          <mxGeometry x="428" y="516" width="30" height="30" as="geometry" />
        </mxCell>
        <mxCell id="aa14wnKSN_EdWKxRWT3--111" value="&lt;font style=&quot;font-size: 8px;&quot;&gt;EN&lt;/font&gt;" style="text;html=1;align=center;verticalAlign=middle;resizable=0;points=[];autosize=1;strokeColor=none;fillColor=none;" parent="1" vertex="1">
          <mxGeometry x="428" y="536" width="30" height="30" as="geometry" />
        </mxCell>
        <mxCell id="aa14wnKSN_EdWKxRWT3--112" value="&lt;font style=&quot;font-size: 8px;&quot;&gt;EN&lt;/font&gt;" style="text;html=1;align=center;verticalAlign=middle;resizable=0;points=[];autosize=1;strokeColor=none;fillColor=none;" parent="1" vertex="1">
          <mxGeometry x="428" y="558" width="30" height="30" as="geometry" />
        </mxCell>
        <mxCell id="aa14wnKSN_EdWKxRWT3--113" value="&lt;font style=&quot;font-size: 8px;&quot;&gt;EN&lt;/font&gt;" style="text;html=1;align=center;verticalAlign=middle;resizable=0;points=[];autosize=1;strokeColor=none;fillColor=none;" parent="1" vertex="1">
          <mxGeometry x="428" y="576" width="30" height="30" as="geometry" />
        </mxCell>
        <mxCell id="pnvJbUOQim8DPk4RIkia-5" value="" style="endArrow=none;html=1;rounded=0;startArrow=oval;startFill=1;" parent="1" edge="1">
          <mxGeometry width="50" height="50" relative="1" as="geometry">
            <mxPoint x="540" y="510" as="sourcePoint" />
            <mxPoint x="610" y="510" as="targetPoint" />
          </mxGeometry>
        </mxCell>
        <mxCell id="pnvJbUOQim8DPk4RIkia-14" value="[7:0]" style="text;html=1;align=center;verticalAlign=middle;resizable=0;points=[];autosize=1;strokeColor=none;fillColor=none;" parent="1" vertex="1">
          <mxGeometry x="528" y="484" width="50" height="30" as="geometry" />
        </mxCell>
        <mxCell id="pnvJbUOQim8DPk4RIkia-15" value="3" style="text;html=1;align=center;verticalAlign=middle;resizable=0;points=[];autosize=1;strokeColor=none;fillColor=none;" parent="1" vertex="1">
          <mxGeometry x="332" y="514" width="30" height="30" as="geometry" />
        </mxCell>
        <mxCell id="pnvJbUOQim8DPk4RIkia-17" value="/" style="text;html=1;align=center;verticalAlign=middle;resizable=0;points=[];autosize=1;strokeColor=none;fillColor=none;" parent="1" vertex="1">
          <mxGeometry x="600" y="235" width="30" height="30" as="geometry" />
        </mxCell>
        <mxCell id="pnvJbUOQim8DPk4RIkia-20" value="/" style="text;html=1;align=center;verticalAlign=middle;resizable=0;points=[];autosize=1;strokeColor=none;fillColor=none;" parent="1" vertex="1">
          <mxGeometry x="598" y="95" width="30" height="30" as="geometry" />
        </mxCell>
        <mxCell id="pnvJbUOQim8DPk4RIkia-21" value="/" style="text;html=1;align=center;verticalAlign=middle;resizable=0;points=[];autosize=1;strokeColor=none;fillColor=none;" parent="1" vertex="1">
          <mxGeometry x="700" y="155" width="30" height="30" as="geometry" />
        </mxCell>
        <mxCell id="pnvJbUOQim8DPk4RIkia-22" value="/" style="text;html=1;align=center;verticalAlign=middle;resizable=0;points=[];autosize=1;strokeColor=none;fillColor=none;" parent="1" vertex="1">
          <mxGeometry x="700" y="180" width="30" height="30" as="geometry" />
        </mxCell>
        <mxCell id="pnvJbUOQim8DPk4RIkia-23" value="/" style="text;html=1;align=center;verticalAlign=middle;resizable=0;points=[];autosize=1;strokeColor=none;fillColor=none;" parent="1" vertex="1">
          <mxGeometry x="690" y="235" width="30" height="30" as="geometry" />
        </mxCell>
        <mxCell id="pnvJbUOQim8DPk4RIkia-24" value="/" style="text;html=1;align=center;verticalAlign=middle;resizable=0;points=[];autosize=1;strokeColor=none;fillColor=none;" parent="1" vertex="1">
          <mxGeometry x="690" y="260" width="30" height="30" as="geometry" />
        </mxCell>
        <mxCell id="pnvJbUOQim8DPk4RIkia-25" value="/" style="text;html=1;align=center;verticalAlign=middle;resizable=0;points=[];autosize=1;strokeColor=none;fillColor=none;" parent="1" vertex="1">
          <mxGeometry x="690" y="305" width="30" height="30" as="geometry" />
        </mxCell>
        <mxCell id="pnvJbUOQim8DPk4RIkia-27" value="/" style="text;html=1;align=center;verticalAlign=middle;resizable=0;points=[];autosize=1;strokeColor=none;fillColor=none;" parent="1" vertex="1">
          <mxGeometry x="690" y="326" width="30" height="30" as="geometry" />
        </mxCell>
        <mxCell id="pnvJbUOQim8DPk4RIkia-28" value="/" style="text;html=1;align=center;verticalAlign=middle;resizable=0;points=[];autosize=1;strokeColor=none;fillColor=none;" parent="1" vertex="1">
          <mxGeometry x="546" y="496" width="30" height="30" as="geometry" />
        </mxCell>
        <mxCell id="pnvJbUOQim8DPk4RIkia-29" value="DOUT" style="text;html=1;align=center;verticalAlign=middle;resizable=0;points=[];autosize=1;fontColor=#FF0000;fontStyle=1" parent="1" vertex="1">
          <mxGeometry x="600" y="496" width="60" height="30" as="geometry" />
        </mxCell>
        <mxCell id="pnvJbUOQim8DPk4RIkia-36" value="" style="group" parent="1" vertex="1" connectable="0">
          <mxGeometry x="510" y="67" width="96" height="111" as="geometry" />
        </mxCell>
        <mxCell id="aa14wnKSN_EdWKxRWT3--1" value="" style="whiteSpace=wrap;html=1;aspect=fixed;" parent="pnvJbUOQim8DPk4RIkia-36" vertex="1">
          <mxGeometry x="10" y="23" width="80" height="80" as="geometry" />
        </mxCell>
        <mxCell id="aa14wnKSN_EdWKxRWT3--2" value="CNT" style="text;html=1;align=center;verticalAlign=middle;resizable=0;points=[];autosize=1;strokeColor=none;fillColor=none;spacing=0;fontSize=15;" parent="pnvJbUOQim8DPk4RIkia-36" vertex="1">
          <mxGeometry x="10" y="23" width="50" height="30" as="geometry" />
        </mxCell>
        <mxCell id="aa14wnKSN_EdWKxRWT3--3" value="CLK_CNTR" style="text;html=1;align=center;verticalAlign=middle;resizable=0;points=[];autosize=1;strokeColor=none;fillColor=none;" parent="pnvJbUOQim8DPk4RIkia-36" vertex="1">
          <mxGeometry x="-3" width="90" height="30" as="geometry" />
        </mxCell>
        <mxCell id="aa14wnKSN_EdWKxRWT3--4" value="" style="triangle;whiteSpace=wrap;html=1;" parent="pnvJbUOQim8DPk4RIkia-36" vertex="1">
          <mxGeometry x="10" y="83" width="10" height="10" as="geometry" />
        </mxCell>
        <mxCell id="aa14wnKSN_EdWKxRWT3--5" value="EN" style="text;html=1;align=center;verticalAlign=middle;resizable=0;points=[];autosize=1;strokeColor=none;fillColor=none;" parent="pnvJbUOQim8DPk4RIkia-36" vertex="1">
          <mxGeometry y="48" width="40" height="30" as="geometry" />
        </mxCell>
        <mxCell id="aa14wnKSN_EdWKxRWT3--7" value="RST" style="text;html=1;align=center;verticalAlign=middle;resizable=0;points=[];autosize=1;strokeColor=none;fillColor=none;" parent="pnvJbUOQim8DPk4RIkia-36" vertex="1">
          <mxGeometry x="46" y="81" width="50" height="30" as="geometry" />
        </mxCell>
        <mxCell id="pnvJbUOQim8DPk4RIkia-37" value="" style="group" parent="1" vertex="1" connectable="0">
          <mxGeometry x="512" y="230" width="94" height="85" as="geometry" />
        </mxCell>
        <mxCell id="aa14wnKSN_EdWKxRWT3--27" value="" style="whiteSpace=wrap;html=1;aspect=fixed;" parent="pnvJbUOQim8DPk4RIkia-37" vertex="1">
          <mxGeometry x="8" width="80" height="80" as="geometry" />
        </mxCell>
        <mxCell id="aa14wnKSN_EdWKxRWT3--28" value="CNT" style="text;html=1;align=center;verticalAlign=middle;resizable=0;points=[];autosize=1;strokeColor=none;fillColor=none;spacing=0;fontSize=15;" parent="pnvJbUOQim8DPk4RIkia-37" vertex="1">
          <mxGeometry x="8" width="50" height="30" as="geometry" />
        </mxCell>
        <mxCell id="aa14wnKSN_EdWKxRWT3--29" value="" style="triangle;whiteSpace=wrap;html=1;" parent="pnvJbUOQim8DPk4RIkia-37" vertex="1">
          <mxGeometry x="8" y="60" width="10" height="10" as="geometry" />
        </mxCell>
        <mxCell id="aa14wnKSN_EdWKxRWT3--30" value="EN" style="text;html=1;align=center;verticalAlign=middle;resizable=0;points=[];autosize=1;strokeColor=none;fillColor=none;" parent="pnvJbUOQim8DPk4RIkia-37" vertex="1">
          <mxGeometry y="25" width="40" height="30" as="geometry" />
        </mxCell>
        <mxCell id="aa14wnKSN_EdWKxRWT3--31" value="RST" style="text;html=1;align=center;verticalAlign=middle;resizable=0;points=[];autosize=1;strokeColor=none;fillColor=none;" parent="pnvJbUOQim8DPk4RIkia-37" vertex="1">
          <mxGeometry x="44" y="55" width="50" height="30" as="geometry" />
        </mxCell>
        <mxCell id="aa14wnKSN_EdWKxRWT3--37" style="edgeStyle=orthogonalEdgeStyle;rounded=0;orthogonalLoop=1;jettySize=auto;html=1;exitX=1;exitY=0.5;exitDx=0;exitDy=0;endArrow=none;endFill=0;entryX=0;entryY=0.5;entryDx=0;entryDy=0;" parent="pnvJbUOQim8DPk4RIkia-37" source="aa14wnKSN_EdWKxRWT3--34" target="aa14wnKSN_EdWKxRWT3--27" edge="1">
          <mxGeometry relative="1" as="geometry">
            <mxPoint x="-12" y="39.95238095238096" as="targetPoint" />
          </mxGeometry>
        </mxCell>
        <mxCell id="pnvJbUOQim8DPk4RIkia-38" value="" style="group" parent="1" vertex="1" connectable="0">
          <mxGeometry x="730" y="310" width="130" height="41" as="geometry" />
        </mxCell>
        <mxCell id="aa14wnKSN_EdWKxRWT3--40" value="" style="rounded=0;whiteSpace=wrap;html=1;" parent="pnvJbUOQim8DPk4RIkia-38" vertex="1">
          <mxGeometry width="120" height="40" as="geometry" />
        </mxCell>
        <mxCell id="aa14wnKSN_EdWKxRWT3--41" value="CMP" style="text;html=1;align=center;verticalAlign=middle;resizable=0;points=[];autosize=1;strokeColor=none;fillColor=none;fontSize=15;" parent="pnvJbUOQim8DPk4RIkia-38" vertex="1">
          <mxGeometry x="30" width="60" height="30" as="geometry" />
        </mxCell>
        <mxCell id="aa14wnKSN_EdWKxRWT3--42" value="&lt;font style=&quot;font-size: 14px;&quot;&gt;A&lt;/font&gt;&lt;div style=&quot;font-size: 14px;&quot;&gt;&lt;font style=&quot;font-size: 14px;&quot;&gt;B&lt;/font&gt;&lt;/div&gt;" style="text;html=1;align=right;verticalAlign=middle;resizable=0;points=[];autosize=1;strokeColor=none;fillColor=none;spacingLeft=4;spacing=0;labelPosition=left;verticalLabelPosition=middle;" parent="pnvJbUOQim8DPk4RIkia-38" vertex="1">
          <mxGeometry x="12" y="1" width="30" height="40" as="geometry" />
        </mxCell>
        <mxCell id="aa14wnKSN_EdWKxRWT3--45" value="==" style="text;html=1;align=center;verticalAlign=middle;resizable=0;points=[];autosize=1;strokeColor=none;fillColor=none;" parent="pnvJbUOQim8DPk4RIkia-38" vertex="1">
          <mxGeometry x="90" y="11" width="40" height="30" as="geometry" />
        </mxCell>
        <mxCell id="pnvJbUOQim8DPk4RIkia-39" value="" style="group" parent="1" vertex="1" connectable="0">
          <mxGeometry x="730" y="240" width="130" height="41" as="geometry" />
        </mxCell>
        <mxCell id="aa14wnKSN_EdWKxRWT3--20" value="" style="rounded=0;whiteSpace=wrap;html=1;" parent="pnvJbUOQim8DPk4RIkia-39" vertex="1">
          <mxGeometry width="120" height="40" as="geometry" />
        </mxCell>
        <mxCell id="aa14wnKSN_EdWKxRWT3--21" value="CMP" style="text;html=1;align=center;verticalAlign=middle;resizable=0;points=[];autosize=1;strokeColor=none;fillColor=none;fontSize=15;" parent="pnvJbUOQim8DPk4RIkia-39" vertex="1">
          <mxGeometry x="30" width="60" height="30" as="geometry" />
        </mxCell>
        <mxCell id="aa14wnKSN_EdWKxRWT3--22" value="&lt;font style=&quot;font-size: 14px;&quot;&gt;A&lt;/font&gt;&lt;div style=&quot;font-size: 14px;&quot;&gt;&lt;font style=&quot;font-size: 14px;&quot;&gt;B&lt;/font&gt;&lt;/div&gt;" style="text;html=1;align=right;verticalAlign=middle;resizable=0;points=[];autosize=1;strokeColor=none;fillColor=none;spacingLeft=4;spacing=0;labelPosition=left;verticalLabelPosition=middle;" parent="pnvJbUOQim8DPk4RIkia-39" vertex="1">
          <mxGeometry x="12" y="1" width="30" height="40" as="geometry" />
        </mxCell>
        <mxCell id="aa14wnKSN_EdWKxRWT3--25" value="==" style="text;html=1;align=center;verticalAlign=middle;resizable=0;points=[];autosize=1;strokeColor=none;fillColor=none;" parent="pnvJbUOQim8DPk4RIkia-39" vertex="1">
          <mxGeometry x="90" y="5" width="40" height="30" as="geometry" />
        </mxCell>
        <mxCell id="pnvJbUOQim8DPk4RIkia-40" value="" style="group" parent="1" vertex="1" connectable="0">
          <mxGeometry x="730" y="162" width="130" height="41" as="geometry" />
        </mxCell>
        <mxCell id="aa14wnKSN_EdWKxRWT3--8" value="" style="rounded=0;whiteSpace=wrap;html=1;" parent="pnvJbUOQim8DPk4RIkia-40" vertex="1">
          <mxGeometry width="120" height="40" as="geometry" />
        </mxCell>
        <mxCell id="aa14wnKSN_EdWKxRWT3--9" value="CMP" style="text;html=1;align=center;verticalAlign=middle;resizable=0;points=[];autosize=1;strokeColor=none;fillColor=none;fontSize=15;" parent="pnvJbUOQim8DPk4RIkia-40" vertex="1">
          <mxGeometry x="30" width="60" height="30" as="geometry" />
        </mxCell>
        <mxCell id="aa14wnKSN_EdWKxRWT3--10" value="&lt;font style=&quot;font-size: 14px;&quot;&gt;A&lt;/font&gt;&lt;div style=&quot;font-size: 14px;&quot;&gt;&lt;font style=&quot;font-size: 14px;&quot;&gt;B&lt;/font&gt;&lt;/div&gt;" style="text;html=1;align=right;verticalAlign=middle;resizable=0;points=[];autosize=1;strokeColor=none;fillColor=none;spacingLeft=4;spacing=0;labelPosition=left;verticalLabelPosition=middle;" parent="pnvJbUOQim8DPk4RIkia-40" vertex="1">
          <mxGeometry x="12" y="1" width="30" height="40" as="geometry" />
        </mxCell>
        <mxCell id="aa14wnKSN_EdWKxRWT3--17" value="==" style="text;html=1;align=center;verticalAlign=middle;resizable=0;points=[];autosize=1;strokeColor=none;fillColor=none;" parent="pnvJbUOQim8DPk4RIkia-40" vertex="1">
          <mxGeometry x="90" y="5" width="40" height="30" as="geometry" />
        </mxCell>
        <mxCell id="pnvJbUOQim8DPk4RIkia-67" value="" style="endArrow=oval;html=1;rounded=0;edgeStyle=orthogonalEdgeStyle;startArrow=none;startFill=0;endFill=1;" parent="1" edge="1">
          <mxGeometry width="50" height="50" relative="1" as="geometry">
            <mxPoint x="390" y="391" as="sourcePoint" />
            <mxPoint x="171" y="127" as="targetPoint" />
            <Array as="points">
              <mxPoint x="340" y="391" />
              <mxPoint x="171" y="391" />
            </Array>
          </mxGeometry>
        </mxCell>
        <mxCell id="pnvJbUOQim8DPk4RIkia-54" value="" style="group" parent="1" vertex="1" connectable="0">
          <mxGeometry x="-76" y="100" width="240" height="70" as="geometry" />
        </mxCell>
        <mxCell id="pnvJbUOQim8DPk4RIkia-55" value="" style="rounded=0;whiteSpace=wrap;html=1;container=0;" parent="pnvJbUOQim8DPk4RIkia-54" vertex="1">
          <mxGeometry x="10" y="6" width="60" height="60" as="geometry" />
        </mxCell>
        <mxCell id="pnvJbUOQim8DPk4RIkia-56" value="&lt;font style=&quot;font-size: 14px;&quot;&gt;D - KO&lt;/font&gt;" style="text;html=1;align=center;verticalAlign=middle;resizable=0;points=[];autosize=1;strokeColor=none;fillColor=none;container=0;" parent="pnvJbUOQim8DPk4RIkia-54" vertex="1">
          <mxGeometry x="5" width="70" height="30" as="geometry" />
        </mxCell>
        <mxCell id="pnvJbUOQim8DPk4RIkia-57" value="" style="triangle;whiteSpace=wrap;html=1;container=0;" parent="pnvJbUOQim8DPk4RIkia-54" vertex="1">
          <mxGeometry x="10" y="50" width="10" height="10" as="geometry" />
        </mxCell>
        <mxCell id="pnvJbUOQim8DPk4RIkia-58" value="D&amp;nbsp; &amp;nbsp; &amp;nbsp; &amp;nbsp; &amp;nbsp; &amp;nbsp;Q" style="text;html=1;align=center;verticalAlign=middle;resizable=0;points=[];autosize=1;strokeColor=none;fillColor=none;container=0;" parent="pnvJbUOQim8DPk4RIkia-54" vertex="1">
          <mxGeometry y="16" width="80" height="30" as="geometry" />
        </mxCell>
        <mxCell id="pnvJbUOQim8DPk4RIkia-66" value="" style="endArrow=none;html=1;rounded=0;" parent="pnvJbUOQim8DPk4RIkia-54" edge="1">
          <mxGeometry width="50" height="50" relative="1" as="geometry">
            <mxPoint x="-10" y="32" as="sourcePoint" />
            <mxPoint x="10" y="32" as="targetPoint" />
          </mxGeometry>
        </mxCell>
        <mxCell id="pnvJbUOQim8DPk4RIkia-42" value="" style="group" parent="1" vertex="1" connectable="0">
          <mxGeometry x="4" y="100" width="160" height="71" as="geometry" />
        </mxCell>
        <mxCell id="pnvJbUOQim8DPk4RIkia-32" value="" style="rounded=0;whiteSpace=wrap;html=1;container=0;" parent="pnvJbUOQim8DPk4RIkia-42" vertex="1">
          <mxGeometry x="10" y="6" width="60" height="60" as="geometry" />
        </mxCell>
        <mxCell id="pnvJbUOQim8DPk4RIkia-33" value="&lt;font style=&quot;font-size: 14px;&quot;&gt;D - KO&lt;/font&gt;" style="text;html=1;align=center;verticalAlign=middle;resizable=0;points=[];autosize=1;strokeColor=none;fillColor=none;container=0;" parent="pnvJbUOQim8DPk4RIkia-42" vertex="1">
          <mxGeometry x="5" width="70" height="30" as="geometry" />
        </mxCell>
        <mxCell id="pnvJbUOQim8DPk4RIkia-35" value="" style="triangle;whiteSpace=wrap;html=1;container=0;" parent="pnvJbUOQim8DPk4RIkia-42" vertex="1">
          <mxGeometry x="10" y="50" width="10" height="10" as="geometry" />
        </mxCell>
        <mxCell id="pnvJbUOQim8DPk4RIkia-41" value="D&amp;nbsp; &amp;nbsp; &amp;nbsp; &amp;nbsp; &amp;nbsp; &amp;nbsp;Q" style="text;html=1;align=center;verticalAlign=middle;resizable=0;points=[];autosize=1;strokeColor=none;fillColor=none;container=0;" parent="pnvJbUOQim8DPk4RIkia-42" vertex="1">
          <mxGeometry y="16" width="80" height="30" as="geometry" />
        </mxCell>
        <mxCell id="pnvJbUOQim8DPk4RIkia-59" value="" style="endArrow=none;html=1;rounded=0;" parent="pnvJbUOQim8DPk4RIkia-42" edge="1">
          <mxGeometry width="50" height="50" relative="1" as="geometry">
            <mxPoint x="-10" y="32.849999999999994" as="sourcePoint" />
            <mxPoint x="10" y="32.849999999999994" as="targetPoint" />
          </mxGeometry>
        </mxCell>
        <mxCell id="pnvJbUOQim8DPk4RIkia-49" value="" style="group" parent="1" vertex="1" connectable="0">
          <mxGeometry x="84" y="100" width="80" height="66" as="geometry" />
        </mxCell>
        <mxCell id="pnvJbUOQim8DPk4RIkia-50" value="" style="rounded=0;whiteSpace=wrap;html=1;container=0;" parent="pnvJbUOQim8DPk4RIkia-49" vertex="1">
          <mxGeometry x="10" y="6" width="60" height="60" as="geometry" />
        </mxCell>
        <mxCell id="pnvJbUOQim8DPk4RIkia-51" value="&lt;font style=&quot;font-size: 14px;&quot;&gt;D - KO&lt;/font&gt;" style="text;html=1;align=center;verticalAlign=middle;resizable=0;points=[];autosize=1;strokeColor=none;fillColor=none;container=0;" parent="pnvJbUOQim8DPk4RIkia-49" vertex="1">
          <mxGeometry x="5" width="70" height="30" as="geometry" />
        </mxCell>
        <mxCell id="pnvJbUOQim8DPk4RIkia-52" value="" style="triangle;whiteSpace=wrap;html=1;container=0;" parent="pnvJbUOQim8DPk4RIkia-49" vertex="1">
          <mxGeometry x="10" y="50" width="10" height="10" as="geometry" />
        </mxCell>
        <mxCell id="pnvJbUOQim8DPk4RIkia-53" value="D&amp;nbsp; &amp;nbsp; &amp;nbsp; &amp;nbsp; &amp;nbsp; &amp;nbsp;Q" style="text;html=1;align=center;verticalAlign=middle;resizable=0;points=[];autosize=1;strokeColor=none;fillColor=none;container=0;" parent="pnvJbUOQim8DPk4RIkia-49" vertex="1">
          <mxGeometry y="16" width="80" height="30" as="geometry" />
        </mxCell>
        <mxCell id="pnvJbUOQim8DPk4RIkia-65" value="" style="endArrow=none;html=1;rounded=0;" parent="pnvJbUOQim8DPk4RIkia-49" edge="1">
          <mxGeometry width="50" height="50" relative="1" as="geometry">
            <mxPoint x="-10" y="32.849999999999994" as="sourcePoint" />
            <mxPoint x="10" y="32.849999999999994" as="targetPoint" />
          </mxGeometry>
        </mxCell>
        <mxCell id="gOlPI_59YLC1l0pKDNOm-1" value="" style="endArrow=oval;html=1;rounded=0;endFill=1;edgeStyle=orthogonalEdgeStyle;exitX=0.032;exitY=0.851;exitDx=0;exitDy=0;exitPerimeter=0;" parent="1" edge="1" source="aa14wnKSN_EdWKxRWT3--56">
          <mxGeometry width="50" height="50" relative="1" as="geometry">
            <mxPoint x="381" y="450" as="sourcePoint" />
            <mxPoint x="490" y="270" as="targetPoint" />
            <Array as="points">
              <mxPoint x="381" y="380" />
              <mxPoint x="382" y="380" />
              <mxPoint x="382" y="350" />
              <mxPoint x="490" y="350" />
            </Array>
          </mxGeometry>
        </mxCell>
        <mxCell id="gOlPI_59YLC1l0pKDNOm-3" value="" style="endArrow=oval;html=1;rounded=0;edgeStyle=orthogonalEdgeStyle;endFill=1;" parent="1" edge="1">
          <mxGeometry width="50" height="50" relative="1" as="geometry">
            <mxPoint x="383" y="391" as="sourcePoint" />
            <mxPoint x="463" y="440" as="targetPoint" />
            <Array as="points">
              <mxPoint x="383" y="391" />
              <mxPoint x="423" y="391" />
              <mxPoint x="423" y="440" />
            </Array>
          </mxGeometry>
        </mxCell>
        <mxCell id="gOlPI_59YLC1l0pKDNOm-4" value="&lt;font style=&quot;font-size: 8px;&quot;&gt;DIN&lt;/font&gt;" style="text;html=1;align=center;verticalAlign=middle;resizable=0;points=[];autosize=1;strokeColor=none;fillColor=none;" parent="1" vertex="1">
          <mxGeometry x="443" y="416" width="40" height="30" as="geometry" />
        </mxCell>
        <mxCell id="oQZUB_r70cg18-4uKBIu-1" value="&lt;font style=&quot;font-size: 12px;&quot;&gt;EN&lt;/font&gt;" style="text;html=1;align=center;verticalAlign=middle;resizable=0;points=[];autosize=1;strokeColor=none;fillColor=none;" vertex="1" parent="1">
          <mxGeometry x="350" y="431" width="40" height="30" as="geometry" />
        </mxCell>
      </root>
    </mxGraphModel>
  </diagram>
</mxfile>
